<?xml version="1.0" encoding="UTF-8"?>
<svg width="40px" height="40px" viewBox="0 0 40 40" version="1.1" xmlns="http://www.w3.org/2000/svg" xmlns:xlink="http://www.w3.org/1999/xlink">
    <title>icon cartao</title>
    <g id="HOME-WIP" stroke="none" stroke-width="1" fill="none" fill-rule="evenodd">
        <g id="HOME" transform="translate(-751.000000, -1445.000000)" fill="#34FB8B" fill-rule="nonzero">
            <g id="MODULO-2" transform="translate(-0.165746, 989.000000)">
                <g id="Feature-1" transform="translate(720.165746, 424.000000)">
                    <g id="icon-cartao" transform="translate(31.000000, 32.000000)">
                        <path d="M36,18 C38.2054999,18 40,19.7945 40,22 L40,36 C40,38.2054999 38.2054999,40 36,40 L14,40 C11.7945,40 10,38.2054999 10,36 L10,22 C10,19.7945 11.7945,18 14,18 L36,18 Z M37.9997143,33.9994285 L12,33.9994285 L12,36 C12,37.1029999 12.897,37.9999999 14,37.9999999 L36,37.9999999 C37.1029999,37.9999999 38,37.1029999 38,36 L37.9997143,33.9994285 Z M36,20 L14,20 C12.897,20 12,20.897 12,22 L12,31.9997143 L37.9997143,31.9997143 L38,22 C38,20.897 37.1029999,20 36,20 Z M26,0 C28.2055,0 30,1.7945 30,4 L30,13 C30,13.552 29.552,14 29,14 C28.448,14 28,13.552 28,13 L28,4 C28,2.897 27.103,2 26,2 L4,2 C2.897,2 2,2.897 2,4 L2,18 C2,19.103 2.897,20 4,20 L5,20 C5.55199997,20 6,20.448 6,21 C6,21.552 5.55199997,22 5,22 L4,22 C1.7945,22 0,20.2055 0,18 L0,4 C0,1.7945 1.7945,0 4,0 L26,0 Z" id="Combined-Shape"></path>
                    </g>
                </g>
            </g>
        </g>
    </g>
</svg>