<?xml version="1.0" encoding="UTF-8"?>
<svg width="36px" height="42px" viewBox="0 0 36 42" version="1.1" xmlns="http://www.w3.org/2000/svg" xmlns:xlink="http://www.w3.org/1999/xlink">
    <title>Icon Seguros</title>
    <g id="HOME-WIP" stroke="none" stroke-width="1" fill="none" fill-rule="evenodd">
        <g id="HOME" transform="translate(-757.000000, -2455.000000)" fill="#34FB8B">
            <g id="MODULO-2" transform="translate(-0.165746, 989.000000)">
                <g id="Feature-5" transform="translate(720.165746, 1426.000000)">
                    <g id="Icon-Seguros" transform="translate(37.747600, 40.886980)">
                        <path d="M15.8124,0.2745 C16.74,-0.0915 17.7636,-0.0915 18.6924,0.2745 L18.6924,0.2745 L32.0064,5.5185 C33.5244,6.1173 34.5048,7.5585 34.5048,9.1893 L34.5048,9.1893 L34.5048,26.4417 C34.5048,30.4353 22.2516,40.2261 17.2524,40.2261 C14.106,40.2261 8.916,36.2265 6.8316,34.5069 C5.6904,33.5661 0,28.7577 0,26.4417 L0,26.4417 L0,9.1893 C0,7.5585 0.9804,6.1173 2.4984,5.5185 L2.4984,5.5185 Z M17.2524,1.7997 C16.9884,1.7997 16.7244,1.8501 16.4724,1.9485 L16.4724,1.9485 L3.1584,7.1937 C2.3328,7.5189 1.8,8.3025 1.8,9.1893 L1.8,9.1893 L1.8,26.4417 C1.9308,28.4493 13.224,38.4261 17.2524,38.4261 C21.5544,38.4261 32.7048,29.1369 32.7048,26.4417 L32.7048,26.4417 L32.7048,9.1893 C32.7048,8.3025 32.172,7.5189 31.3464,7.1937 L31.3464,7.1937 L18.0324,1.9485 C17.7816,1.8501 17.5164,1.7997 17.2524,1.7997 Z M17.2524,18.49578 C20.8812,18.49578 23.8344,21.61818 23.8344,25.45578 C23.8344,25.95258 23.4312,26.35578 22.9344,26.35578 C22.4376,26.35578 22.0344,25.95258 22.0344,25.45578 C22.0344,22.61058 19.8888,20.29578 17.2524,20.29578 C14.616,20.29578 12.4704,22.61058 12.4704,25.45578 C12.4704,25.95258 12.0672,26.35578 11.5704,26.35578 C11.0736,26.35578 10.6704,25.95258 10.6704,25.45578 C10.6704,21.61818 13.6236,18.49578 17.2524,18.49578 Z M17.2524,9.63006 C19.6284,9.63006 21.5616,11.56326 21.5616,13.93926 C21.5616,16.31526 19.6284,18.24846 17.2524,18.24846 C14.8764,18.24846 12.9432,16.31526 12.9432,13.93926 C12.9432,11.56326 14.8764,9.63006 17.2524,9.63006 Z M17.2524,11.43006 C15.8688,11.43006 14.7432,12.55566 14.7432,13.93926 C14.7432,15.32286 15.8688,16.44846 17.2524,16.44846 C18.636,16.44846 19.7616,15.32286 19.7616,13.93926 C19.7616,12.55566 18.636,11.43006 17.2524,11.43006 Z" id="icon-seguro"></path>
                    </g>
                </g>
            </g>
        </g>
    </g>
</svg>