<?xml version="1.0" encoding="UTF-8"?>
<svg width="42px" height="42px" viewBox="0 0 42 42" version="1.1" xmlns="http://www.w3.org/2000/svg" xmlns:xlink="http://www.w3.org/1999/xlink">
    <title>Icon Investimentos</title>
    <g id="HOME-WIP" stroke="none" stroke-width="1" fill="none" fill-rule="evenodd">
        <g id="HOME" transform="translate(-207.000000, -1732.000000)" fill="#34FB8B">
            <g id="MODULO-2" transform="translate(-0.165746, 989.000000)">
                <g id="Feature-2" transform="translate(173.165746, 707.000000)">
                    <g id="Icon-Investimentos" transform="translate(34.899995, 36.900000)">
                        <path d="M0.900005347,0 C1.39560535,0 1.79880535,0.4008 1.80000535,0.8976 L1.80000535,0.8976 L1.89720535,36.1044 C1.90080535,37.3704 2.93280535,38.4 4.19880535,38.4 L4.19880535,38.4 L39.3000053,38.4 C39.7968053,38.4 40.2000053,38.8032 40.2000053,39.3 C40.2000053,39.7968 39.7968053,40.2 39.3000053,40.2 L39.3000053,40.2 L4.19880535,40.2 C1.94280535,40.2 0.103205347,38.3652 0.0972053472,36.1092 L0.0972053472,36.1092 L2.66765028e-06,0.9024 C-0.00119465276,0.4056 0.400805347,0.0012 0.897605347,0 L0.897605347,0 Z M39.2569253,6.40392 C39.2713253,6.40392 39.2821253,6.41232 39.2965253,6.41232 C39.3997253,6.41712 39.5029253,6.43392 39.6001253,6.47352 C39.6985253,6.51432 39.7849253,6.57552 39.8617253,6.64752 C39.8713253,6.65592 39.8833253,6.65832 39.8917253,6.66672 L39.8917253,6.66672 C39.9757253,6.75072 40.0417253,6.84912 40.0873253,6.95952 C40.1329253,7.06992 40.1557253,7.18632 40.1569253,7.30392 L40.1569253,7.30392 L40.1569253,12.08352 C40.1569253,12.58032 39.7537253,12.98352 39.2569253,12.98352 C38.7601253,12.98352 38.3569253,12.58032 38.3569253,12.08352 L38.3569253,12.08352 L38.3569253,9.48312 L27.1537253,20.73552 C26.9149253,20.97552 26.5609253,21.06312 26.2345253,20.95512 L26.2345253,20.95512 L17.1457253,17.96592 L7.97892535,27.13152 C7.80372535,27.30792 7.57332535,27.39552 7.34292535,27.39552 C7.11252535,27.39552 6.88212535,27.30792 6.70692535,27.13152 C6.35532535,26.77992 6.35532535,26.21112 6.70692535,25.85952 L6.70692535,25.85952 L16.2649253,16.30152 C16.5037253,16.06032 16.8565253,15.97512 17.1817253,16.08312 L17.1817253,16.08312 L26.2693253,19.07112 L37.0909253,8.20392 L34.3909253,8.20392 C33.8941253,8.20392 33.4909253,7.80072 33.4909253,7.30392 C33.4909253,6.80712 33.8941253,6.40392 34.3909253,6.40392 L34.3909253,6.40392 Z" id="icon-investimento"></path>
                    </g>
                </g>
            </g>
        </g>
    </g>
</svg>