<?xml version="1.0" encoding="UTF-8"?>
<svg width="31px" height="39px" viewBox="0 0 31 39" version="1.1" xmlns="http://www.w3.org/2000/svg" xmlns:xlink="http://www.w3.org/1999/xlink">
    <title>icn_empresa</title>
    <g id="HOME-WIP" stroke="none" stroke-width="1" fill="none" fill-rule="evenodd">
        <g id="HOME" transform="translate(-471.000000, -2066.000000)" fill="#34FB8B" fill-rule="nonzero">
            <g id="MODULO-2" transform="translate(-0.165746, 989.000000)">
                <g id="Feature-3" transform="translate(440.165746, 1037.000000)">
                    <g id="icn_empresa" transform="translate(31.000000, 40.000000)">
                        <path d="M27.9803822,0 C29.6457014,0 31,1.38032671 31,3.07765151 L31,35.9223485 C31,37.6196733 29.6457014,39 27.9803822,39 L21.9587611,39 C21.4031514,39 20.9522219,38.5404041 20.9522219,37.9741162 C20.9522219,37.4078283 21.4031514,36.9482323 21.9587611,36.9482323 L27.9803822,36.9482323 C28.5354887,36.9482323 28.9869215,36.4881235 28.9869215,35.9223485 L28.9869215,3.07765151 C28.9869215,2.51187658 28.5354887,2.05176767 27.9803822,2.05176767 L11.8767607,2.05176767 C11.3216542,2.05176767 10.8702214,2.51187658 10.8702214,3.07765151 L10.8702214,9.24988164 C10.8702214,9.81616953 10.4192918,10.2757655 9.86368212,10.2757655 C9.30756914,10.2757655 8.85714286,9.81616953 8.85714286,9.24988164 L8.85714286,3.07765151 C8.85714286,1.38032671 10.2114415,0 11.8767607,0 L27.9803822,0 Z M13.6778419,14.1818182 C15.4149441,14.1818182 16.8285714,15.5711614 16.8285714,17.2795734 L16.8285714,35.9022448 C16.8285714,37.6106568 15.4149441,39 13.6778419,39 L11.5463734,39 C10.9666392,39 10.4961302,38.5374019 10.4961302,37.9674149 L10.4961302,28.6343949 L6.27572804,28.6343949 L6.27572804,37.9674149 C6.27572804,38.5374019 5.80521916,39 5.22548489,39 L3.15072955,39 C1.41310223,39 0,37.6106568 0,35.9022448 L0,17.2795734 C0,15.5711614 1.41310223,14.1818182 3.15072955,14.1818182 L13.6778419,14.1818182 Z M13.6778419,16.2469883 L3.15072955,16.2469883 C2.57152041,16.2469883 2.10048631,16.7101026 2.10048631,17.2795734 L2.10048631,35.9022448 C2.10048631,36.4717155 2.57152041,36.9348299 3.15072955,36.9348299 L4.17524173,36.9348299 L4.17524173,27.6018098 C4.17524173,27.0313066 4.64522556,26.5692248 5.22548489,26.5692248 L11.5463734,26.5692248 C12.1261076,26.5692248 12.5966166,27.0313066 12.5966166,27.6018098 L12.5966166,36.9348299 L13.6778419,36.9348299 C14.2565259,36.9348299 14.7280851,36.4717155 14.7280851,35.9022448 L14.7280851,17.2795734 C14.7280851,16.7101026 14.2565259,16.2469883 13.6778419,16.2469883 Z M24.5805623,16.8409091 C25.678525,16.8409091 26.5714286,17.7344673 26.5714286,18.8332349 L26.5714286,22.825856 C26.5714286,23.9246237 25.678525,24.8181818 24.5805623,24.8181818 L20.5908662,24.8181818 C19.4929035,24.8181818 18.6,23.9246237 18.6,22.825856 L18.6,18.8332349 C18.6,17.7344673 19.4929035,16.8409091 20.5908662,16.8409091 L24.5805623,16.8409091 Z M24.5805623,18.8332349 L20.5908662,18.8332349 L20.5908662,22.825856 L24.577576,22.825856 L24.5805623,18.8332349 Z M24.5805623,7.09090909 C25.678525,7.09090909 26.5714286,7.98446725 26.5714286,9.0832349 L26.5714286,13.075856 C26.5714286,14.1746237 25.678525,15.0681818 24.5805623,15.0681818 L20.5908662,15.0681818 C19.4929035,15.0681818 18.6,14.1746237 18.6,13.075856 L18.6,9.0832349 C18.6,7.98446725 19.4929035,7.09090909 20.5908662,7.09090909 L24.5805623,7.09090909 Z M24.5805623,9.0832349 L20.5908662,9.0832349 L20.5908662,13.075856 L24.577576,13.075856 L24.5805623,9.0832349 Z" id="icn-empresa"></path>
                    </g>
                </g>
            </g>
        </g>
    </g>
</svg>