<?xml version="1.0" encoding="UTF-8"?>
<svg width="42px" height="36px" viewBox="0 0 42 36" version="1.1" xmlns="http://www.w3.org/2000/svg" xmlns:xlink="http://www.w3.org/1999/xlink">
    <title>Icon Emprestimo</title>
    <g id="HOME-WIP" stroke="none" stroke-width="1" fill="none" fill-rule="evenodd">
        <g id="MOB-HOME" transform="translate(-81.000000, -2663.000000)" fill="#34FB8B">
            <g id="MODULO-2" transform="translate(0.000000, 741.000000)">
                <g id="Feature-4" transform="translate(47.000000, 1888.000000)">
                    <g id="Icon-Emprestimo" transform="translate(34.518640, 34.154560)">
                        <path d="M32.2356,0 C34.3883273,0 36.1528937,1.67789311 36.2578603,3.77755899 L36.2628,3.9756 L36.2628,6.5484 C36.2628,7.0452 35.8596,7.4484 35.3628,7.4484 C34.9042154,7.4484 34.5253846,7.10484497 34.4698165,6.6612437 L34.4628,6.5484 L34.4628,3.9756 C34.4628,2.82892174 33.5482321,1.88535879 32.3943653,1.80547747 L32.2356,1.8 L4.0284,1.8 C2.85302609,1.8 1.88735501,2.69370737 1.80560549,3.8205558 L1.8,3.9756 L1.8,31.7148 C1.8,32.8626261 2.71456786,33.805141 3.86948487,33.884929 L4.0284,33.8904 L32.2128,33.8904 C32.8212,33.8904 33.3888,33.6552 33.8112,33.2292 C34.176,32.8633333 34.3928889,32.3931704 34.4340543,31.8895062 L34.4412,31.6992 L34.4232,29.148 C34.4198769,28.6894154 34.7611314,28.3085396 35.2043984,28.2498254 L35.3172,28.242 C35.7791077,28.242 36.1571716,28.5824876 36.2154336,29.0237293 L36.2232,29.136 L36.2412,31.6872 C36.2484,32.7444 35.8392,33.7428 35.0892,34.4976 C34.3805143,35.2118571 33.4483347,35.6281224 32.4454264,35.6839448 L32.2128,35.6904 L4.0284,35.6904 C1.87450909,35.6904 0.109907438,34.0136353 0.00493974455,31.9129436 L0,31.7148 L0,3.9756 C0,1.8508 1.69933223,0.108519008 3.82765199,0.00487736873 L4.0284,0 L32.2356,0 Z M18.64956,6.72972 C19.1081446,6.72972 19.4869754,7.07327503 19.5425435,7.5168763 L19.54956,7.62972 L19.54956,10.13292 C21.12156,10.36692 22.53516,10.99332 23.47596,11.93532 C23.82636,12.28692 23.82636,12.85692 23.47476,13.20852 C23.12316,13.55892 22.55196,13.55892 22.20036,13.20732 C21.44916,12.45372 20.17956,11.94012 18.80556,11.83332 C16.44396,11.65452 14.32236,12.68292 14.17476,14.09052 C13.99716,15.76332 15.38316,16.28892 18.36756,17.01492 C20.99316,17.65332 24.26196,18.44892 23.90316,21.84492 C23.7048,23.716 21.952272,25.1419107 19.5994569,25.5839261 L19.35396,25.62612 L19.35396,28.06092 C19.35396,28.55772 18.95076,28.96092 18.45396,28.96092 C17.9953754,28.96092 17.6165446,28.617365 17.5609765,28.1737637 L17.55396,28.06092 L17.55396,25.71732 C17.48196,25.71252 17.41236,25.71372 17.34036,25.70892 C15.36636,25.55412 13.57476,24.73692 12.54756,23.52372 C12.22716,23.14452 12.27396,22.57692 12.65316,22.25532 C13.03116,21.93612 13.59876,21.98052 13.92156,22.36092 C14.64396,23.21532 15.97596,23.79612 17.48076,23.91372 C19.84116,24.09012 21.96396,23.06412 22.11276,21.65652 C22.28676,20.00652 20.90916,19.48572 17.94156,18.76332 C17.7618055,18.7196291 17.5790497,18.6752074 17.3946516,18.6292729 L17.0240686,18.5351552 C14.6062809,17.9072669 12.0640691,16.9356109 12.38316,13.90212 C12.6030873,11.8227018 14.7378663,10.2849035 17.4897979,10.0469927 L17.74956,10.02852 L17.74956,7.62972 C17.74956,7.13292 18.15276,6.72972 18.64956,6.72972 Z M35.36304,12.324 C35.85984,12.324 36.26304,12.7272 36.26304,13.224 L36.26304,13.224 L36.26304,16.9452 L40.06224,16.9452 C40.55904,16.9452 40.96224,17.3484 40.96224,17.8452 C40.96224,18.342 40.55904,18.7452 40.06224,18.7452 L40.06224,18.7452 L36.26304,18.7452 L36.26304,22.4676 C36.26304,22.9644 35.85984,23.3676 35.36304,23.3676 C34.86624,23.3676 34.46304,22.9644 34.46304,22.4676 L34.46304,22.4676 L34.46304,18.7452 L30.66384,18.7452 C30.16704,18.7452 29.76384,18.342 29.76384,17.8452 C29.76384,17.3484 30.16704,16.9452 30.66384,16.9452 L30.66384,16.9452 L34.46304,16.9452 L34.46304,13.224 C34.46304,12.7272 34.86624,12.324 35.36304,12.324 Z" id="icon-emprestimo"></path>
                    </g>
                </g>
            </g>
        </g>
    </g>
</svg>