<?xml version="1.0" encoding="UTF-8"?>
<svg width="36px" height="41px" viewBox="0 0 36 41" version="1.1" xmlns="http://www.w3.org/2000/svg" xmlns:xlink="http://www.w3.org/1999/xlink">
    <title>Combined Shape Copy 3</title>
    <g id="HOME-WIP" stroke="none" stroke-width="1" fill="none" fill-rule="evenodd">
        <g id="Telefones" transform="translate(-702.000000, -136.000000)" fill="#FFFFFF">
            <path d="M736.741267,152 C737.088687,152 737.403491,152.136923 737.631319,152.358394 C737.859148,152.579866 738,152.885887 738,153.223614 L738,166.379222 C738,166.597875 737.940083,166.808074 737.831364,166.991028 C737.722644,167.173983 737.565363,167.329695 737.370634,167.438904 L720.627071,176.836069 C720.529465,176.890791 720.426544,176.931656 720.320482,176.9589 C720.249935,176.977219 720.178099,176.989379 720.105906,176.995451 L719.997463,177 C719.888985,177 719.780507,176.986378 719.674928,176.959135 C719.569349,176.931891 719.466428,176.891026 719.369063,176.836538 L702.630333,167.460981 C702.435362,167.351771 702.277839,167.19606 702.168878,167.013105 C702.060158,166.829915 702,166.619482 702,166.400829 L702,153.250857 C702,152.91313 702.140852,152.60711 702.368681,152.385638 C702.596509,152.164166 702.911313,152.027244 703.258733,152.027244 C703.606394,152.027244 703.920957,152.164166 704.148785,152.385638 C704.376613,152.60711 704.517466,152.91313 704.517466,153.250857 L704.517466,165.693434 L719.99698,174.363477 L735.482293,165.672767 L735.482293,153.223614 C735.482293,152.885887 735.623145,152.579866 735.850973,152.358394 C736.078802,152.136923 736.393606,152 736.741267,152 Z M720.001571,136 C720.219252,136 720.436691,136.056682 720.631662,136.170045 L737.370634,145.900791 C737.565363,146.013911 737.722644,146.175198 737.831364,146.364704 C737.940083,146.55421 738,146.771936 738,146.998419 C738,147.224902 737.940083,147.442871 737.831364,147.632377 C737.722644,147.821883 737.565363,147.982927 737.370634,148.09629 L720.627072,157.829955 C720.529707,157.886637 720.426544,157.929209 720.320724,157.957428 C720.250015,157.976403 720.178234,157.988999 720.106022,157.995288 L719.997464,158 C719.888985,158 719.780507,157.98589 719.674928,157.957671 C719.569108,157.929452 719.466428,157.887123 719.369064,157.830685 L702.630334,148.119157 C702.435604,148.006037 702.278082,147.845237 702.16912,147.655731 C702.060401,147.466224 702,147.248499 702,147.022016 C702,146.795533 702.059434,146.577807 702.167912,146.388058 C702.27639,146.198551 702.433672,146.037264 702.628401,145.923901 L719.371721,136.170531 C719.566692,136.056925 719.784131,136 720.001571,136 Z M720.00302,138.731907 L705.776441,147.01861 L719.996739,155.269309 L734.223318,146.998419 L720.00302,138.731907 Z" id="Combined-Shape-Copy-3"></path>
        </g>
    </g>
</svg>