<svg xmlns="http://www.w3.org/2000/svg" xmlns:xlink="http://www.w3.org/1999/xlink" width="134" height="40" viewBox="0 0 134 40">
    <defs>
        <path id="s1kav2jgsa" d="M33.748 15.018c.675 0 1.223.546 1.223 1.22V29.35c0 .436-.233.838-.612 1.056l-16.265 9.367c-.188.109-.4.163-.61.163-.212 0-.423-.054-.611-.163L.613 30.428C.232 30.21 0 29.808 0 29.371V16.265c0-.674.548-1.22 1.223-1.22.676 0 1.223.546 1.223 1.22v12.402l15.036 8.641 15.043-8.662V16.238c0-.674.547-1.22 1.223-1.22zm28.585-3.801c2.323 0 4.213 1.885 4.213 4.202v2.66c0 1.97-1.369 4.14-3.206 4.592l3.03 5.795c.38.695.122 1.567-.574 1.95-.831.458-1.666-.002-1.955-.571l-3.715-7.048h-2.937v6.286c0 .792-.646 1.436-1.44 1.436-.794 0-1.44-.644-1.44-1.436V15.419c0-2.317 1.89-4.202 4.212-4.202zm28.02.014c.793 0 1.44.645 1.44 1.437v16.43c0 .791-.647 1.436-1.44 1.436-.795 0-1.442-.645-1.442-1.437V12.668c0-.792.647-1.437 1.441-1.437zm5.3 0c.513 0 .992.276 1.248.72l6.667 12.6V12.668c0-.792.646-1.437 1.44-1.437.794 0 1.44.645 1.44 1.437v16.43c0 .649-.437 1.226-1.068 1.387-.347.089-1.164.122-1.62-.672l-6.667-12.022v11.306c0 .792-.647 1.437-1.44 1.437-.795 0-1.441-.645-1.441-1.437V12.668c0-1.432 1.315-1.437 1.44-1.437zm29.222 0c.794 0 1.44.644 1.44 1.437V27.66h5.876c.795 0 1.441.645 1.441 1.437s-.646 1.437-1.44 1.437h-7.317c-.795 0-1.44-.645-1.44-1.437v-16.43c0-.792.645-1.436 1.44-1.436zm-77.196-.014c2.323 0 4.213 1.885 4.213 4.202v10.899c0 2.317-1.89 4.202-4.213 4.202h-3.811c-2.323 0-4.213-1.885-4.213-4.202V15.419c0-2.317 1.89-4.202 4.213-4.202zm22.723 0c.795 0 1.44.644 1.44 1.437v16.429c0 .792-.645 1.437-1.44 1.437-.794 0-1.44-.645-1.44-1.437v-16.43c0-.792.646-1.436 1.44-1.436zm11.881 0c2.323 0 4.213 1.885 4.213 4.202 0 .792-.646 1.437-1.44 1.437-.795 0-1.441-.645-1.441-1.437 0-.732-.598-1.328-1.332-1.328h-3.811c-.734 0-1.332.596-1.332 1.328v10.899c0 .732.598 1.328 1.332 1.328h3.811c.734 0 1.332-.596 1.332-1.328V22.78h-3.238c-.794 0-1.44-.644-1.44-1.437 0-.792.646-1.436 1.44-1.436h4.678c.385 0 .747.149 1.02.42.271.271.421.632.421 1.016v4.975c0 2.317-1.89 4.202-4.213 4.202h-3.811c-2.323 0-4.213-1.885-4.213-4.202V15.419c0-2.317 1.89-4.202 4.213-4.202zm34.565.014c2.315-.001 4.196 1.812 4.198 4.546V29.04c0 .852-.646 1.47-1.44 1.47-.795 0-1.44-.645-1.44-1.437v-6.28h-6.426v6.28c0 .792-.646 1.436-1.44 1.436-.795 0-1.44-.644-1.44-1.436V15.419c0-2.31 1.882-4.188 4.197-4.188zm-69.169 2.86h-3.811c-.734 0-1.332.595-1.332 1.328v10.899c0 .732.598 1.328 1.332 1.328h3.811c.735 0 1.332-.596 1.332-1.328V15.419c0-.733-.597-1.328-1.332-1.328zM16.875.164c.379-.219.846-.219 1.224 0l16.26 9.363c.379.218.612.62.612 1.056 0 .436-.233.839-.612 1.057l-16.264 9.366c-.19.109-.4.163-.612.163-.21 0-.421-.054-.61-.162L.613 11.662c-.38-.218-.612-.62-.613-1.056 0-.436.233-.839.61-1.057zM62.333 14.09H58.52c-.734 0-1.332.596-1.332 1.328v4.505h5.144c.734 0 1.332-1.113 1.332-1.845v-2.66c0-.732-.598-1.328-1.332-1.328zm54.515.014h-3.79c-.727 0-1.318.59-1.318 1.314v4.502h6.425v-4.502c0-.725-.59-1.314-1.317-1.314zM17.488 2.628L3.67 10.603l13.814 7.938 13.82-7.958-13.815-7.955zm39.088.289c1.098 0 1.991.86 1.992 2.157V7.99c0 .404-.307.697-.684.697-.377 0-.683-.306-.683-.682v-3.1c0-.344-.28-.623-.625-.623h-1.8c-.344 0-.625.28-.625.623v3.1c0 .376-.306.682-.683.682-.377 0-.684-.306-.684-.682v-3.1c0-1.096.894-1.987 1.992-1.987zm-6.595 0c1.099 0 1.993.891 1.993 1.987v1.794c0 1.096-.863 1.987-2.164 1.988h-1.69c-.077 0-.148-.014-.216-.035-.91-.167-1.605-.954-1.628-1.905l-.002.049v-.097l.002.048c.029-1.077.882-1.937 2.16-1.938h2.16c-.046-.298-.303-.528-.615-.528h-2.818c-.377 0-.683-.305-.683-.681 0-.376.306-.682.683-.682zm14.199 0c.405 0 .699.306.699.682 0 .376-.307.682-.684.682h-2.818c-.345 0-.625.28-.625.623V6.7c0 .344.28.623.625.623h2.818c.377 0 .684.306.684.682 0 .376-.307.682-.684.682h-2.818c-1.099 0-1.992-.891-1.992-1.987V4.904c-.001-1.095.862-1.986 2.163-1.987zm5.336 0c1.099 0 1.992.891 1.992 1.987V6.7c0 1.095-.862 1.986-2.163 1.987h-1.633c-1.098 0-1.992-.891-1.992-1.987V4.904c0-1.095.862-1.986 2.163-1.987zM42.814.049c1.038 0 1.882.843 1.882 1.878v.765c0 1.14-.69 1.212-.69 1.212s1.64.172 1.64 1.711v1.189c0 1.035-.845 1.877-1.883 1.877h-2.225c-1.543 0-1.883-.427-1.883-1.877V1.762C39.668.427 39.846.05 41.249.05zm.949 4.71H42.9l-.175.01h-1.783v2.035c0 .469.11.593.595.593h2.225c.328 0 .595-.266.595-.593V5.583c0-.327-.267-.825-.595-.825zm25.753-.478h-1.804c-.344 0-.625.28-.625.623V6.7c0 .344.28.623.625.623h1.804c.345 0 .625-.28.625-.623V4.904c0-.344-.28-.623-.625-.623zm-18.91 1.89h-2.34c-.328 0-.595.255-.62.576.025.32.292.575.62.575h1.715c.345 0 .625-.28.625-.624v-.527zm-7.792-4.837h-1.566c-.475 0-.305.117-.305.593v1.58h1.22l.255.01h.396c.328 0 .595-.498.595-.825v-.765c0-.327-.267-.593-.595-.593z"/>
    </defs>
    <g fill="none" fill-rule="evenodd">
        <g>
            <g>
                <g>
                    <g>
                        <g>
                            <g transform="translate(-113 -177) translate(50 177) translate(63)">
                                <mask id="oarcduebeb" fill="#fff">
                                    <use xlink:href="#s1kav2jgsa"/>
                                </mask>
                                <use fill="#FEFEFE" xlink:href="#s1kav2jgsa"/>
                                <g fill="#FFF" mask="url(#oarcduebeb)">
                                    <path d="M0 0H134V40H0z"/>
                                </g>
                            </g>
                        </g>
                    </g>
                </g>
            </g>
        </g>
    </g>
</svg>
