<?xml version="1.0" encoding="utf-8"?>
<!-- Generator: Adobe Illustrator 17.0.0, SVG Export Plug-In . SVG Version: 6.00 Build 0)  -->
<!DOCTYPE svg PUBLIC "-//W3C//DTD SVG 1.1//EN" "http://www.w3.org/Graphics/SVG/1.1/DTD/svg11.dtd" [
	<!ENTITY ns_flows "http://ns.adobe.com/Flows/1.0/">
	<!ENTITY ns_extend "http://ns.adobe.com/Extensibility/1.0/">
	<!ENTITY ns_ai "http://ns.adobe.com/AdobeIllustrator/10.0/">
	<!ENTITY ns_graphs "http://ns.adobe.com/Graphs/1.0/">
]>
<svg version="1.1" id="Layer_1" xmlns:x="&ns_extend;" xmlns:i="&ns_ai;" xmlns:graph="&ns_graphs;"
	 xmlns="http://www.w3.org/2000/svg" xmlns:xlink="http://www.w3.org/1999/xlink" xmlns:a="http://ns.adobe.com/AdobeSVGViewerExtensions/3.0/"
	 x="0px" y="0px" width="75px" height="75px" viewBox="0 0 75 75" enable-background="new 0 0 75 75" xml:space="preserve">
<g>
	<path fill-rule="evenodd" clip-rule="evenodd" fill="inherit" d="M37.5,0.5c-20.4,0-37,16.6-37,37c0,20.4,16.6,37,37,37
		s37-16.6,37-37C74.5,17.1,57.9,0.5,37.5,0.5 M37.5,70.3c-18.1,0-32.8-14.7-32.8-32.8S19.4,4.7,37.5,4.7s32.8,14.7,32.8,32.8
		S55.6,70.3,37.5,70.3"/>
	<path fill="inherit" d="M22.9,31.7v1.1c0,0.5-0.5,0.8-1,0.8c-0.5,0-1-0.4-1-0.8v-1.1c-1.3,0-2.2-0.2-3.1-0.6
		c-0.5-0.2-0.8-0.6-0.8-1c0-0.5,0.3-1,0.9-1c0.4,0,0.7,0.3,1.5,0.5c0.4,0.1,0.9,0.2,1.6,0.2c2.1,0,3-0.9,3-2.2c0-1-0.5-1.4-1.9-1.8
		c-1-0.3-2.6-0.5-3.6-1c-1-0.5-1.5-1.4-1.5-3c0-2.3,1.7-3.8,3.7-4.1v-1.2c0-0.5,0.5-0.8,1-0.8c0.5,0,1,0.4,1,0.8v1.1
		c0.7,0,1.3,0.1,2.1,0.5c0.5,0.2,0.6,0.5,0.6,0.9c0,0.5-0.4,1-1.1,1c-0.3,0-0.7-0.2-1.4-0.4c-0.3-0.1-0.8-0.1-1.4-0.1
		c-1.6,0-2.6,0.8-2.6,2c0,1.1,0.6,1.5,1.9,1.8c1.1,0.3,2.8,0.5,3.8,1.1c1,0.6,1.8,1.6,1.8,2.9C26.6,29.9,24.9,31.4,22.9,31.7"/>
	<path fill="inherit" d="M25.1,58.9h-2V45.7h-5.3v13.2h-2V44.7c0-0.6,0.4-1,1-1h7.3c0.6,0,1,0.4,1,1V58.9z"/>
	<path fill="inherit" d="M36.6,58.9h-2V42h-5.3v17h-2V41c0-0.6,0.4-1,1-1h7.3c0.6,0,1,0.4,1,1V58.9z"/>
	<path fill="inherit" d="M48,58.9h-2V34.4h-5.3v24.5h-2V33.4c0-0.6,0.4-1,1-1H47c0.6,0,1,0.4,1,1V58.9z"/>
	<path fill="inherit" d="M59.4,58.9h-2V19.4h-5.3v39.6h-2V18.4c0-0.6,0.4-1,1-1h7.3c0.6,0,1,0.4,1,1V58.9z"/>
	<path fill="inherit" d="M47.6,27.4c-0.2,0.2-0.4,0.3-0.7,0.4c-0.5,0.1-1-0.2-1.1-0.7l-0.8-7.3l-7.4,0.8c-0.5,0.1-1-0.3-1.1-0.9
		c-0.1-0.5,0.3-1,0.9-1.1l8.4-0.9c0.3,0,0.5-0.1,0.7,0.1c0.2,0.2,0.3,0.3,0.4,0.6l0.9,8.4C47.8,27,47.7,27.2,47.6,27.4"/>
	<path fill="inherit" d="M19,39.9c-0.4,0-0.8-0.3-1-0.7c-0.2-0.5,0.2-1.1,0.7-1.2c10.5-3.1,19.6-9.8,25.6-19.1
		c0.3-0.5,0.9-0.6,1.4-0.3c0.5,0.3,0.6,0.9,0.3,1.4c-6.2,9.6-15.7,16.7-26.7,19.9C19.2,39.9,19.1,39.9,19,39.9"/>
</g>
</svg>
