<?xml version="1.0" encoding="utf-8"?>
<!-- Generator: Adobe Illustrator 23.0.4, SVG Export Plug-In . SVG Version: 6.00 Build 0)  -->
<svg version="1.1" id="icon" xmlns="http://www.w3.org/2000/svg" xmlns:xlink="http://www.w3.org/1999/xlink" x="0px" y="0px"
	 viewBox="0 0 64 64" style="enable-background:new 0 0 64 64;" xml:space="preserve">
<style type="text/css">
	.st0{fill:#FFFFFF;}
</style>
<g>
	<path class="st0" d="M32,0C14.4,0,0,14.4,0,32c0,17.6,14.4,32,32,32s32-14.4,32-32C64,14.4,49.6,0,32,0z M32,60.3
		C16.4,60.3,3.7,47.6,3.7,32C3.7,16.4,16.4,3.7,32,3.7S60.3,16.4,60.3,32C60.3,47.6,47.6,60.3,32,60.3z"/>
	<path class="st0" d="M46.8,17.9h-8.3c-0.1-2.3-2-4.3-4.5-4.3h-4.3c-2.4,0-4.4,1.9-4.5,4.3H17c-1.2,0-2.3,0.5-3.2,1.3
		s-1.3,1.9-1.3,3.2v21.2c0,2.4,1.9,4.5,4.5,4.5h29.8c2.4,0,4.5-1.9,4.5-4.5V22.4c0-1.2-0.5-2.3-1.3-3.2C49.2,18.4,48,17.9,46.8,17.9
		z M28.5,16.7c0.4-0.4,0.9-0.6,1.4-0.6h4.3c0.6,0,1,0.2,1.4,0.6c0.4,0.4,0.6,0.7,0.6,1.2h-8.2C27.9,17.4,28.2,17,28.5,16.7z
		 M48.8,43.6c0,0.6-0.2,1-0.6,1.4c-0.4,0.4-0.8,0.6-1.4,0.6H17.1c-0.6,0-1-0.2-1.4-0.6c-0.4-0.4-0.6-0.8-0.6-1.4v-8.8
		c0.6,0.3,1.3,0.5,1.9,0.5h10.5v0.4c0,0.9,0.8,1.8,1.8,1.8h5.3c0.9,0,1.8-0.8,1.8-1.8v-0.4h10.5c0.6,0,1.4-0.2,1.9-0.5V43.6z
		 M30.1,34.9v-1.8h3.9v1.8H30.1z M48.9,30.9c0,0.6-0.2,1-0.6,1.4s-0.8,0.6-1.4,0.6H36.5v-0.4c0-0.9-0.8-1.8-1.8-1.8h-5.3
		c-0.9,0-1.8,0.8-1.8,1.8v0.4H17.2c-0.6,0-1-0.2-1.4-0.6c-0.4-0.4-0.6-0.8-0.6-1.4v-8.5c0-0.6,0.2-1,0.6-1.4
		c0.4-0.4,0.8-0.6,1.4-0.6h29.8c0.6,0,1,0.2,1.4,0.6c0.4,0.4,0.6,0.8,0.6,1.4V30.9z"/>
</g>
</svg>
