<?xml version="1.0" encoding="utf-8"?>
<!-- Generator: Adobe Illustrator 17.0.0, SVG Export Plug-In . SVG Version: 6.00 Build 0)  -->
<!DOCTYPE svg PUBLIC "-//W3C//DTD SVG 1.1//EN" "http://www.w3.org/Graphics/SVG/1.1/DTD/svg11.dtd" [
	<!ENTITY ns_flows "http://ns.adobe.com/Flows/1.0/">
	<!ENTITY ns_extend "http://ns.adobe.com/Extensibility/1.0/">
	<!ENTITY ns_ai "http://ns.adobe.com/AdobeIllustrator/10.0/">
	<!ENTITY ns_graphs "http://ns.adobe.com/Graphs/1.0/">
]>
<svg version="1.1" id="Layer_1" xmlns:x="&ns_extend;" xmlns:i="&ns_ai;" xmlns:graph="&ns_graphs;"
	 xmlns="http://www.w3.org/2000/svg" xmlns:xlink="http://www.w3.org/1999/xlink" xmlns:a="http://ns.adobe.com/AdobeSVGViewerExtensions/3.0/"
	 x="0px" y="0px" width="75px" height="75px" viewBox="0 0 75 75" enable-background="new 0 0 75 75" xml:space="preserve">
<g>
	<path fill="inherit" d="M26.9,30.5v1.4c0,0.6-0.8,1-1.3,1c-0.6,0-1.3-0.4-1.3-1v-1.3c-1.3,0-2.7-0.3-3.8-0.7c-0.6-0.2-1-0.7-1-1.2
		c0-0.6,0.4-1.2,1.1-1.2c0.5,0,0.8,0.3,1.8,0.6c0.5,0.1,1.1,0.2,2,0.2c2.6,0,3.7-1.1,3.7-2.7c0-1.2-0.6-1.8-2.3-2.2
		c-1.2-0.3-3.2-0.6-4.4-1.2c-1.2-0.6-1.8-1.7-1.8-3.6c0-2.8,2.5-4.6,4.6-5v-1.4c0-0.6,0.8-1,1.3-1c0.6,0,1.3,0.5,1.3,1v1.3
		c0.7,0,1.5,0.2,2.4,0.6c0.6,0.2,0.6,0.7,0.6,1.2c0,0.6-0.6,1.3-1.4,1.3c-0.4,0-0.8-0.3-1.7-0.5c-0.4-0.1-1-0.2-1.7-0.2
		c-2,0-3.2,0.9-3.2,2.4c0,1.3,0.8,1.8,2.3,2.2c1.4,0.4,3.5,0.6,4.6,1.3c1.2,0.8,2.3,1.9,2.3,3.6C31.3,28.4,29.6,30.2,26.9,30.5"/>
	<path fill="inherit" d="M41,53.5c-0.5,0-1.1,0-1.6-0.1c-0.6-0.1-1-0.5-1.1-1.1c-0.5-4.5,1-8.8,4.2-12s7.5-4.7,12-4.2
		c0.6,0.1,1,0.5,1.1,1.1c0.5,4.5-1,8.8-4.2,12C48.6,52,44.9,53.5,41,53.5 M40.7,51c3.4,0.1,6.6-1.2,9-3.6c2.4-2.4,3.7-5.6,3.6-9
		c-3.4-0.1-6.6,1.2-9,3.6C41.9,44.5,40.6,47.7,40.7,51"/>
	<path fill="inherit" d="M39.4,46.4c-0.3,0-0.5-0.1-0.8-0.3c-3.5-2.8-5.5-7-5.5-11.4c0-4.5,2-8.6,5.5-11.4c0.4-0.4,1.1-0.4,1.5,0
		c3.5,2.8,5.5,7,5.5,11.4c0,4.5-2,8.6-5.5,11.4C39.9,46.3,39.7,46.4,39.4,46.4 M39.4,25.8c-2.4,2.3-3.8,5.5-3.8,8.9
		c0,3.4,1.4,6.6,3.8,8.9c2.4-2.3,3.8-5.5,3.8-8.9C43.2,31.3,41.8,28.1,39.4,25.8"/>
	<path fill="inherit" d="M38,53.5c-3.9,0-7.6-1.5-10.4-4.3c-3.2-3.2-4.7-7.5-4.2-12c0.1-0.6,0.5-1,1.1-1.1c4.5-0.5,8.8,1,12,4.2
		c3.2,3.2,4.7,7.5,4.2,12c-0.1,0.6-0.5,1-1.1,1.1C39.1,53.5,38.6,53.5,38,53.5 M25.8,38.5c-0.1,3.4,1.2,6.6,3.6,9s5.6,3.7,9,3.6
		c0.1-3.4-1.2-6.6-3.6-9C32.4,39.7,29.2,38.4,25.8,38.5"/>
	<rect x="38.4" y="52.3" fill="inherit" width="2" height="12.1"/>
</g>
<path fill="inherit" d="M37.5,0.5c-20.4,0-37,16.6-37,37s16.6,37,37,37s37-16.6,37-37S57.9,0.5,37.5,0.5 M37.5,70.3
	c-18.1,0-32.8-14.7-32.8-32.8S19.4,4.7,37.5,4.7s32.8,14.7,32.8,32.8S55.6,70.3,37.5,70.3"/>
</svg>
